<svg width="153" height="38" viewBox="0 0 153 38" fill="none" xmlns="http://www.w3.org/2000/svg">
<rect width="153" height="38" fill="#1E3A8A"/>
<path d="M32.4574 28.2841C31.179 28.2841 30.0781 27.9822 29.1548 27.3786C28.2315 26.7749 27.5213 25.9433 27.0241 24.8839C26.527 23.8245 26.2784 22.6141 26.2784 21.2528C26.2784 19.8679 26.5329 18.6457 27.0419 17.5863C27.5568 16.521 28.273 15.6894 29.1903 15.0916C30.1136 14.4879 31.1908 14.1861 32.4219 14.1861C33.3807 14.1861 34.2448 14.3636 35.0142 14.7188C35.7836 15.0739 36.4139 15.571 36.9052 16.2102C37.3964 16.8494 37.7012 17.5952 37.8196 18.4474H35.7244C35.5646 17.826 35.2095 17.2756 34.6591 16.7962C34.1146 16.3108 33.3807 16.0682 32.4574 16.0682C31.6406 16.0682 30.9245 16.2812 30.3089 16.7074C29.6993 17.1276 29.2229 17.7224 28.8796 18.4918C28.5423 19.2553 28.3736 20.152 28.3736 21.1818C28.3736 22.2353 28.5393 23.1527 28.8707 23.9339C29.2081 24.7152 29.6816 25.3219 30.2912 25.7539C30.9067 26.186 31.6288 26.402 32.4574 26.402C33.0019 26.402 33.4961 26.3073 33.94 26.1179C34.3839 25.9285 34.7597 25.6562 35.0675 25.3011C35.3752 24.946 35.5942 24.5199 35.7244 24.0227H37.8196C37.7012 24.8277 37.4083 25.5527 36.9407 26.1978C36.479 26.837 35.8665 27.346 35.103 27.7248C34.3454 28.0977 33.4635 28.2841 32.4574 28.2841ZM46.4222 28.2841C45.1912 28.2841 44.111 27.9911 43.1818 27.4052C42.2585 26.8192 41.5365 25.9995 41.0156 24.946C40.5007 23.8925 40.2433 22.6615 40.2433 21.2528C40.2433 19.8324 40.5007 18.5924 41.0156 17.533C41.5365 16.4736 42.2585 15.6509 43.1818 15.065C44.111 14.479 45.1912 14.1861 46.4222 14.1861C47.6533 14.1861 48.7305 14.479 49.6538 15.065C50.583 15.6509 51.305 16.4736 51.82 17.533C52.3408 18.5924 52.6012 19.8324 52.6012 21.2528C52.6012 22.6615 52.3408 23.8925 51.82 24.946C51.305 25.9995 50.583 26.8192 49.6538 27.4052C48.7305 27.9911 47.6533 28.2841 46.4222 28.2841ZM46.4222 26.402C47.3574 26.402 48.1268 26.1623 48.7305 25.6829C49.3342 25.2035 49.781 24.5732 50.071 23.7919C50.361 23.0107 50.506 22.1643 50.506 21.2528C50.506 20.3414 50.361 19.4921 50.071 18.7049C49.781 17.9177 49.3342 17.2815 48.7305 16.7962C48.1268 16.3108 47.3574 16.0682 46.4222 16.0682C45.4871 16.0682 44.7177 16.3108 44.114 16.7962C43.5103 17.2815 43.0634 17.9177 42.7734 18.7049C42.4834 19.4921 42.3384 20.3414 42.3384 21.2528C42.3384 22.1643 42.4834 23.0107 42.7734 23.7919C43.0634 24.5732 43.5103 25.2035 44.114 25.6829C44.7177 26.1623 45.4871 26.402 46.4222 26.402ZM64.3932 22.4247V14.3636H66.4884V28H64.3932V25.6918H64.2512C63.9316 26.3842 63.4344 26.9731 62.7597 27.4585C62.085 27.9379 61.2327 28.1776 60.2029 28.1776C59.3506 28.1776 58.593 27.9911 57.9301 27.6183C57.2673 27.2395 56.7464 26.6713 56.3676 25.9137C55.9888 25.1502 55.7994 24.1884 55.7994 23.0284V14.3636H57.8946V22.8864C57.8946 23.8807 58.1728 24.6738 58.7291 25.2656C59.2914 25.8575 60.0075 26.1534 60.8776 26.1534C61.3984 26.1534 61.9281 26.0202 62.4667 25.7539C63.0112 25.4876 63.4669 25.0792 63.8339 24.5288C64.2068 23.9783 64.3932 23.277 64.3932 22.4247ZM70.3258 28V14.3636H72.35V16.4233H72.492C72.7406 15.7486 73.1904 15.2011 73.8414 14.7809C74.4925 14.3607 75.2264 14.1506 76.0431 14.1506C76.197 14.1506 76.3894 14.1535 76.6202 14.1594C76.851 14.1654 77.0256 14.1742 77.144 14.1861V16.3168C77.073 16.299 76.9102 16.2724 76.6557 16.2369C76.4071 16.1954 76.1438 16.1747 75.8656 16.1747C75.2027 16.1747 74.6109 16.3138 74.09 16.592C73.5751 16.8642 73.1667 17.243 72.8649 17.7283C72.569 18.2077 72.421 18.7552 72.421 19.3707V28H70.3258ZM89.2867 17.4176L87.4046 17.9503C87.2862 17.6366 87.1116 17.3318 86.8808 17.0359C86.6559 16.734 86.3481 16.4854 85.9575 16.2901C85.5669 16.0948 85.0667 15.9972 84.4571 15.9972C83.6226 15.9972 82.9272 16.1895 82.3708 16.5742C81.8204 16.953 81.5452 17.4354 81.5452 18.0213C81.5452 18.5421 81.7346 18.9535 82.1134 19.2553C82.4922 19.5572 83.084 19.8087 83.8889 20.0099L85.9131 20.5071C87.1323 20.803 88.0408 21.2558 88.6386 21.8654C89.2364 22.4691 89.5352 23.2474 89.5352 24.2003C89.5352 24.9815 89.3103 25.6799 88.8605 26.2955C88.4166 26.911 87.7952 27.3963 86.9962 27.7514C86.1972 28.1065 85.268 28.2841 84.2085 28.2841C82.8177 28.2841 81.6665 27.9822 80.7551 27.3786C79.8436 26.7749 79.2665 25.893 79.0239 24.733L81.0125 24.2358C81.2019 24.9697 81.56 25.5201 82.0867 25.8871C82.6194 26.254 83.3148 26.4375 84.173 26.4375C85.1496 26.4375 85.9249 26.2304 86.499 25.8161C87.079 25.3958 87.3691 24.8928 87.3691 24.3068C87.3691 23.8333 87.2033 23.4368 86.8719 23.1172C86.5405 22.7917 86.0315 22.549 85.3449 22.3892L83.0722 21.8565C81.8234 21.5606 80.906 21.1019 80.32 20.4805C79.74 19.8531 79.45 19.0689 79.45 18.1278C79.45 17.3584 79.666 16.6778 80.0981 16.0859C80.5361 15.4941 81.1309 15.0295 81.8825 14.6921C82.6401 14.3548 83.4983 14.1861 84.4571 14.1861C85.8066 14.1861 86.866 14.482 87.6354 15.0739C88.4107 15.6657 88.9611 16.447 89.2867 17.4176ZM98.4064 28.2841C97.0925 28.2841 95.9591 27.9941 95.0062 27.4141C94.0592 26.8281 93.3283 26.0114 92.8134 24.9638C92.3044 23.9103 92.0499 22.6851 92.0499 21.2884C92.0499 19.8916 92.3044 18.6605 92.8134 17.5952C93.3283 16.5239 94.0444 15.6894 94.9618 15.0916C95.8851 14.4879 96.9623 14.1861 98.1934 14.1861C98.9036 14.1861 99.6049 14.3045 100.297 14.5412C100.99 14.7779 101.62 15.1626 102.188 15.6953C102.757 16.2221 103.209 16.9205 103.547 17.7905C103.884 18.6605 104.053 19.7318 104.053 21.0043V21.892H93.5414V20.081H101.922C101.922 19.3116 101.768 18.625 101.46 18.0213C101.159 17.4176 100.727 16.9412 100.164 16.592C99.6079 16.2428 98.9509 16.0682 98.1934 16.0682C97.3588 16.0682 96.6368 16.2753 96.0272 16.6896C95.4235 17.098 94.9589 17.6307 94.6333 18.2876C94.3078 18.9446 94.1451 19.6489 94.1451 20.4006V21.608C94.1451 22.6378 94.3226 23.5108 94.6777 24.2269C95.0388 24.9371 95.5389 25.4787 96.1781 25.8516C96.8173 26.2185 97.5601 26.402 98.4064 26.402C98.9569 26.402 99.454 26.325 99.8979 26.1712C100.348 26.0114 100.735 25.7746 101.061 25.4609C101.386 25.1413 101.638 24.7448 101.816 24.2713L103.84 24.8395C103.627 25.526 103.269 26.1297 102.765 26.6506C102.262 27.1655 101.641 27.5679 100.901 27.858C100.161 28.142 99.3297 28.2841 98.4064 28.2841ZM107.24 28V14.3636H109.264V16.4233H109.406C109.655 15.7486 110.104 15.2011 110.756 14.7809C111.407 14.3607 112.14 14.1506 112.957 14.1506C113.111 14.1506 113.303 14.1535 113.534 14.1594C113.765 14.1654 113.94 14.1742 114.058 14.1861V16.3168C113.987 16.299 113.824 16.2724 113.57 16.2369C113.321 16.1954 113.058 16.1747 112.78 16.1747C112.117 16.1747 111.525 16.3138 111.004 16.592C110.489 16.8642 110.081 17.243 109.779 17.7283C109.483 18.2077 109.335 18.7552 109.335 19.3707V28H107.24ZM120.554 28.3196C119.69 28.3196 118.906 28.1568 118.202 27.8313C117.497 27.4999 116.938 27.0234 116.524 26.402C116.11 25.7746 115.902 25.017 115.902 24.1293C115.902 23.348 116.056 22.7147 116.364 22.2294C116.672 21.7382 117.083 21.3535 117.598 21.0753C118.113 20.7971 118.681 20.59 119.303 20.4538C119.93 20.3118 120.56 20.1993 121.194 20.1165C122.022 20.0099 122.694 19.93 123.209 19.8768C123.73 19.8176 124.109 19.7199 124.345 19.5838C124.588 19.4477 124.709 19.2109 124.709 18.8736V18.8026C124.709 17.9266 124.47 17.246 123.99 16.7607C123.517 16.2753 122.798 16.0327 121.833 16.0327C120.833 16.0327 120.048 16.2517 119.48 16.6896C118.912 17.1276 118.513 17.5952 118.282 18.0923L116.293 17.3821C116.648 16.5535 117.122 15.9084 117.714 15.4467C118.311 14.9792 118.962 14.6536 119.667 14.4702C120.377 14.2808 121.075 14.1861 121.762 14.1861C122.2 14.1861 122.703 14.2393 123.271 14.3459C123.845 14.4465 124.399 14.6566 124.931 14.9762C125.47 15.2958 125.917 15.7782 126.272 16.4233C126.627 17.0684 126.804 17.9325 126.804 19.0156V28H124.709V26.1534H124.603C124.461 26.4493 124.224 26.766 123.892 27.1033C123.561 27.4407 123.12 27.7277 122.57 27.9645C122.019 28.2012 121.348 28.3196 120.554 28.3196ZM120.874 26.4375C121.703 26.4375 122.401 26.2747 122.969 25.9492C123.543 25.6237 123.975 25.2035 124.265 24.6886C124.561 24.1737 124.709 23.6321 124.709 23.0639V21.1463C124.62 21.2528 124.425 21.3505 124.123 21.4393C123.827 21.5221 123.484 21.5961 123.093 21.6612C122.709 21.7204 122.333 21.7737 121.966 21.821C121.605 21.8625 121.312 21.898 121.087 21.9276C120.543 21.9986 120.034 22.114 119.56 22.2738C119.093 22.4277 118.714 22.6615 118.424 22.9751C118.14 23.2829 117.998 23.7031 117.998 24.2358C117.998 24.9638 118.267 25.5142 118.805 25.8871C119.35 26.254 120.04 26.4375 120.874 26.4375Z" fill="white"/>
</svg>
